<?xml version="1.0" encoding="UTF-8"?>
<svg width="121px" height="46px" viewBox="0 0 121 46" version="1.1" xmlns="http://www.w3.org/2000/svg" xmlns:xlink="http://www.w3.org/1999/xlink">
    <!-- Generator: Sketch 52.4 (67378) - http://www.bohemiancoding.com/sketch -->
    <title>offr logo - dark</title>
    <desc>Created with Sketch.</desc>
    <g id="Frontend" stroke="none" stroke-width="1" fill="none" fill-rule="evenodd">
        <g id="offr---sign-in" transform="translate(-791.000000, -367.000000)">
            <g id="Group-3" transform="translate(586.000000, 306.000000)">
                <g id="offr-logo---dark" transform="translate(205.000000, 61.000000)">
                    <g id="offr-logo">
                        <path d="M68.9916071,0.299534884 C70.18,0.427906977 71.4116071,0.684651163 72.6432143,1.06976744 L73.1185714,1.17674419 L71.7357143,8.53674419 L71.1739286,8.40837209 C69.8775,8.10883721 68.6458929,7.93767442 67.4791071,7.93767442 C66.4635714,7.93767442 65.5344643,8.21581395 64.7133929,8.79348837 C63.9571429,9.32837209 63.5682143,10.3553488 63.5682143,11.8102326 L63.5682143,12.5162791 L71.1523214,12.5162791 L71.1523214,20.3469767 L63.5682143,20.3469767 L63.5682143,45.9786047 L53.7153571,45.9786047 L53.7153571,20.3469767 L48.5728571,20.3469767 L48.5728571,12.5162791 L53.7153571,12.5162791 L53.7153571,12.0027907 C53.7153571,9.94883721 54.0178571,8.15162791 54.6228571,6.65395349 C55.2278571,5.13488372 56.0921429,3.87255814 57.1725,2.90976744 C58.2528571,1.96837209 59.5276786,1.24093023 60.9753571,0.791627907 C62.4014286,0.342325581 63.9571429,0.106976744 65.6425,0.106976744 C66.70125,0.106976744 67.8248214,0.171162791 68.9916071,0.299534884 Z M93.9478571,0.299534884 C95.13625,0.427906977 96.34625,0.684651163 97.5994643,1.06976744 L98.0748214,1.17674419 L96.6919643,8.53674419 L96.1301786,8.40837209 C94.83375,8.10883721 93.6021429,7.93767442 92.4353571,7.93767442 C91.4198214,7.93767442 90.4907143,8.21581395 89.6696429,8.79348837 C88.9133929,9.32837209 88.5244643,10.3553488 88.5244643,11.8102326 L88.5244643,12.5162791 L96.1085714,12.5162791 L96.1085714,20.3469767 L88.5244643,20.3469767 L88.5244643,45.9786047 L78.6716071,45.9786047 L78.6716071,20.3469767 L73.5291071,20.3469767 L73.5291071,12.5162791 L78.6716071,12.5162791 L78.6716071,12.0027907 C78.6716071,9.94883721 78.9741071,8.15162791 79.5791071,6.65395349 C80.1841071,5.13488372 81.0483929,3.87255814 82.12875,2.90976744 C83.2091071,1.96837209 84.4839286,1.24093023 85.9316071,0.791627907 C87.3576786,0.342325581 88.9133929,0.106976744 90.59875,0.106976744 C91.6575,0.106976744 92.7810714,0.171162791 93.9478571,0.299534884 Z M120.459821,12.2809302 L120.935179,12.387907 L119.725179,21.3525581 L119.141786,21.2027907 C118.191071,20.9674419 116.981071,20.8390698 115.576607,20.8390698 C114.669107,20.8390698 113.783214,20.9460465 112.962143,21.16 C112.162679,21.3739535 111.449643,21.7590698 110.801429,22.3153488 C110.131607,22.9144186 109.613036,23.5990698 109.288929,24.347907 C108.964821,25.0967442 108.791964,25.8883721 108.791964,26.68 L108.791964,45.9572093 L98.9391071,45.9572093 L98.9391071,12.5162791 L108.532679,12.5162791 L108.532679,15.9395349 C109.461786,14.8269767 110.520536,13.9497674 111.687321,13.307907 C113.307857,12.4093023 115.036429,11.96 116.829821,11.96 C117.694107,11.96 118.407143,12.0027907 118.968929,12.0669767 C119.530714,12.1097674 120.027679,12.1953488 120.459821,12.2809302 Z" id="ffr" fill="#19003A" fill-rule="nonzero"></path>
                        <path d="M39.5332022,32.4342593 C37.6435108,30.5601852 34.5942361,30.5601852 32.7045448,32.4342593 C27.4434722,37.6518519 18.8754398,37.6518519 13.6143673,32.4342593 C8.35329475,27.2166667 8.35329475,18.7194444 13.6143673,13.5018519 C13.6143673,13.5018519 13.6143673,13.5018519 13.6143673,13.5018519 C15.5040586,11.6277778 15.5040586,8.6037037 13.6143673,6.72962963 C12.6480478,5.79259259 11.4240432,5.32407407 10.1785648,5.32407407 C8.93308642,5.32407407 7.70908179,5.79259259 6.76423611,6.72962963 C-2.25474537,15.6740741 -2.25474537,30.262037 6.76423611,39.2064815 C15.8046914,48.1509259 30.4927469,48.1509259 39.5117284,39.2064815 C39.5117284,39.2064815 39.5117284,39.2064815 39.5117284,39.2064815 C41.4014198,37.3324074 41.4014198,34.3083333 39.5332022,32.4342593 Z" id="Shape" fill="#960F8C" fill-rule="nonzero"></path>
                        <path d="M32.7045448,13.5018519 C30.1491667,10.9675926 26.7563117,9.58333333 23.1487191,9.58333333 C19.5411265,9.58333333 16.1482716,10.9675926 13.5928935,13.5018519 C13.5928935,13.5018519 13.5928935,13.5018519 13.5928935,13.5018519 C8.33182099,18.7194444 8.33182099,27.2166667 13.5928935,32.4342593 C18.853966,37.6518519 27.4219985,37.6518519 32.683071,32.4342593 C37.9656173,27.2166667 37.9656173,18.7194444 32.7045448,13.5018519 Z" id="Shape"></path>
                        <path d="M6.76423611,13.5018519 C8.65392747,15.3759259 11.7032022,15.3759259 13.5928935,13.5018519 C13.5928935,13.5018519 13.5928935,13.5018519 13.5928935,13.5018519 C15.4825849,11.6277778 15.4825849,8.6037037 13.5928935,6.72962963 C12.6480478,5.79259259 11.4240432,5.32407407 10.1785648,5.32407407 C8.93308642,5.32407407 7.70908179,5.79259259 6.76423611,6.72962963 C4.89601852,8.6037037 4.89601852,11.6277778 6.76423611,13.5018519 Z" id="Shape" fill="#46E166" fill-rule="nonzero"></path>
                        <path d="M6.76423611,13.5018519 C8.65392747,15.3759259 11.7032022,15.3759259 13.5928935,13.5018519 C13.5928935,13.5018519 13.5928935,13.5018519 13.5928935,13.5018519 C15.4825849,11.6277778 15.4825849,8.6037037 13.5928935,6.72962963 C12.6480478,5.79259259 11.4240432,5.32407407 10.1785648,5.32407407 C8.93308642,5.32407407 7.70908179,5.79259259 6.76423611,6.72962963 C4.89601852,8.6037037 4.89601852,11.6277778 6.76423611,13.5018519 Z" id="Shape" fill="#00F283" fill-rule="nonzero"></path>
                        <path d="M39.5332022,32.4342593 C37.6435108,30.5601852 34.5942361,30.5601852 32.7045448,32.4342593 C30.8148534,34.3083333 30.8148534,37.3324074 32.7045448,39.2064815 C34.5942361,41.0805556 37.6435108,41.0805556 39.5332022,39.2064815 C39.5332022,39.2064815 39.5332022,39.2064815 39.5332022,39.2064815 C41.4014198,37.3324074 41.4014198,34.3083333 39.5332022,32.4342593 Z" id="Shape" fill="#46E166" fill-rule="nonzero"></path>
                        <path d="M39.5332022,32.4342593 C37.6435108,30.5601852 34.5942361,30.5601852 32.7045448,32.4342593 C30.8148534,34.3083333 30.8148534,37.3324074 32.7045448,39.2064815 C34.5942361,41.0805556 37.6435108,41.0805556 39.5332022,39.2064815 C39.5332022,39.2064815 39.5332022,39.2064815 39.5332022,39.2064815 C41.4014198,37.3324074 41.4014198,34.3083333 39.5332022,32.4342593 Z" id="Shape" fill="#00F283" fill-rule="nonzero"></path>
                        <path d="M39.5332022,6.72962963 C35.152554,2.38518519 29.3331636,0 23.1487191,0 C16.9642747,0 11.1448843,2.38518519 6.76423611,6.72962963 C4.87454475,8.6037037 4.87454475,11.6277778 6.76423611,13.5018519 C8.65392747,15.3759259 11.7032022,15.3759259 13.5928935,13.5018519 C13.5928935,13.5018519 13.5928935,13.5018519 13.5928935,13.5018519 C16.1482716,10.9675926 19.5411265,9.58333333 23.1487191,9.58333333 C26.7563117,9.58333333 30.1491667,10.9675926 32.7045448,13.5018519 C37.9656173,18.7194444 37.9656173,27.2166667 32.7045448,32.4342593 C30.8148534,34.3083333 30.8148534,37.3324074 32.7045448,39.2064815 C34.5942361,41.0805556 37.6435108,41.0805556 39.5332022,39.2064815 C39.5332022,39.2064815 39.5332022,39.2064815 39.5332022,39.2064815 C48.5521836,30.2407407 48.5521836,15.6740741 39.5332022,6.72962963 Z" id="Shape" fill="#E239BF" fill-rule="nonzero"></path>
                        <path d="M6.76423611,13.5018519 C8.65392747,15.3759259 11.7032022,15.3759259 13.5928935,13.5018519 C13.5928935,13.5018519 13.5928935,13.5018519 13.5928935,13.5018519 C15.4825849,11.6277778 15.4825849,8.6037037 13.5928935,6.72962963 C12.6480478,5.79259259 11.4240432,5.32407407 10.1785648,5.32407407 C8.93308642,5.32407407 7.70908179,5.79259259 6.76423611,6.72962963 C4.89601852,8.6037037 4.89601852,11.6277778 6.76423611,13.5018519 Z" id="Shape" fill="#FF7133" fill-rule="nonzero"></path>
                        <path d="M39.5332022,32.4342593 C37.6435108,30.5601852 34.5942361,30.5601852 32.7045448,32.4342593 C30.8148534,34.3083333 30.8148534,37.3324074 32.7045448,39.2064815 C34.5942361,41.0805556 37.6435108,41.0805556 39.5332022,39.2064815 C39.5332022,39.2064815 39.5332022,39.2064815 39.5332022,39.2064815 C41.4014198,37.3324074 41.4014198,34.3083333 39.5332022,32.4342593 Z" id="Shape" fill="#FF7133" fill-rule="nonzero"></path>
                    </g>
                </g>
            </g>
        </g>
    </g>
</svg>