<?xml version="1.0" encoding="utf-8"?>
<!-- Generator: Adobe Illustrator 25.2.3, SVG Export Plug-In . SVG Version: 6.00 Build 0)  -->
<svg version="1.1" id="Layer_1" xmlns="http://www.w3.org/2000/svg" xmlns:xlink="http://www.w3.org/1999/xlink" x="0px" y="0px"
	 viewBox="0 0 50.6 46" style="enable-background:new 0 0 50.6 46;" xml:space="preserve">
<style type="text/css">
	.st0{fill:#960F8C;}
	.st1{fill:none;}
	.st2{fill:#46E166;}
	.st3{fill:#00F283;}
	.st4{fill:#E239BF;}
	.st5{fill:#FF7133;}
</style>
<desc>Created with Sketch.</desc>
<g id="Frontend">
	<g id="offr---sign-in" transform="translate(-791.000000, -367.000000)">
		<g id="Group-3" transform="translate(586.000000, 306.000000)">
			<g id="offr-logo---dark" transform="translate(205.000000, 61.000000)">
				<g id="offr-logo">
					<path id="Shape" class="st0" d="M40,31.1c-1.6-1.6-4.2-1.6-5.8,0c-4.5,4.5-11.8,4.5-16.3,0s-4.5-11.7,0-16.2l0,0
						c1.6-1.6,1.6-4.2,0-5.8C17.1,8.3,16,7.9,15,7.9S12.8,8.3,12,9.1c-7.7,7.6-7.7,20.1,0,27.7c7.7,7.6,20.3,7.6,28,0l0,0
						C41.6,35.3,41.6,32.7,40,31.1z"/>
					<path id="Shape_1_" class="st1" d="M34.2,14.9c-2.2-2.2-5.1-3.3-8.2-3.3s-6,1.2-8.2,3.3l0,0c-4.5,4.5-4.5,11.7,0,16.2
						s11.8,4.5,16.3,0C38.7,26.6,38.7,19.4,34.2,14.9z"/>
					<path id="Shape_2_" class="st2" d="M12,14.9c1.6,1.6,4.2,1.6,5.8,0l0,0c1.6-1.6,1.6-4.2,0-5.8C17.1,8.3,16,7.9,15,7.9
						S12.8,8.3,12,9.1C10.4,10.7,10.4,13.3,12,14.9z"/>
					<path id="Shape_3_" class="st3" d="M12,14.9c1.6,1.6,4.2,1.6,5.8,0l0,0c1.6-1.6,1.6-4.2,0-5.8C17.1,8.3,16,7.9,15,7.9
						S12.8,8.3,12,9.1C10.4,10.7,10.4,13.3,12,14.9z"/>
					<path id="Shape_4_" class="st2" d="M40,31.1c-1.6-1.6-4.2-1.6-5.8,0c-1.6,1.6-1.6,4.2,0,5.8c1.6,1.6,4.2,1.6,5.8,0l0,0
						C41.6,35.3,41.6,32.7,40,31.1z"/>
					<path id="Shape_5_" class="st3" d="M40,31.1c-1.6-1.6-4.2-1.6-5.8,0c-1.6,1.6-1.6,4.2,0,5.8c1.6,1.6,4.2,1.6,5.8,0l0,0
						C41.6,35.3,41.6,32.7,40,31.1z"/>
					<path id="Shape_6_" class="st4" d="M40,9.1c-3.7-3.7-8.7-5.7-14-5.7s-10.3,2-14,5.7c-1.6,1.6-1.6,4.2,0,5.8s4.2,1.6,5.8,0l0,0
						c2.2-2.2,5.1-3.3,8.2-3.3s6,1.2,8.2,3.3c4.5,4.5,4.5,11.7,0,16.2c-1.6,1.6-1.6,4.2,0,5.8c1.6,1.6,4.2,1.6,5.8,0l0,0
						C47.7,29.2,47.7,16.8,40,9.1z"/>
					<path id="Shape_7_" class="st5" d="M12,14.9c1.6,1.6,4.2,1.6,5.8,0l0,0c1.6-1.6,1.6-4.2,0-5.8C17.1,8.3,16,7.9,15,7.9
						S12.8,8.3,12,9.1C10.4,10.7,10.4,13.3,12,14.9z"/>
					<path id="Shape_8_" class="st5" d="M40,31.1c-1.6-1.6-4.2-1.6-5.8,0c-1.6,1.6-1.6,4.2,0,5.8c1.6,1.6,4.2,1.6,5.8,0l0,0
						C41.6,35.3,41.6,32.7,40,31.1z"/>
				</g>
			</g>
		</g>
	</g>
</g>
</svg>
